<svg width="151" height="25" viewBox="0 0 151 25" fill="none" xmlns="http://www.w3.org/2000/svg">
<g clip-path="url(#clip0)">
<path d="M10.655 2.24849H7.14216C6.52617 2.24849 6.01007 1.74883 6.01007 1.11592C6.01007 0.483004 6.50952 -0.0166626 7.14216 -0.0166626H10.655C11.271 -0.0166626 11.7871 0.483004 11.7871 1.11592C11.7871 1.74883 11.2876 2.24849 10.655 2.24849Z" fill="url(#paint0_linear)"/>
<path d="M14.1844 7.94469H4.11213C3.49614 7.94469 2.98004 7.44503 2.98004 6.81211C2.98004 6.1792 3.47949 5.67953 4.11213 5.67953H14.1844C14.8004 5.67953 15.3165 6.1792 15.3165 6.81211C15.3165 7.44503 14.817 7.94469 14.1844 7.94469Z" fill="url(#paint1_linear)"/>
<path d="M25.6718 13.6243H13.1189C12.5029 13.6243 11.9868 13.1246 11.9868 12.4917C11.9868 11.8754 12.4863 11.3591 13.1189 11.3591H25.6718C26.2878 11.3591 26.8039 11.8588 26.8039 12.4917C26.8039 13.1246 26.2878 13.6243 25.6718 13.6243Z" fill="url(#paint2_linear)"/>
<path d="M8.1244 13.6243H1.13209C0.499451 13.6243 0 13.1246 0 12.4917C0 11.8754 0.499451 11.3591 1.13209 11.3591H8.1244C8.74039 11.3591 9.25649 11.8588 9.25649 12.4917C9.23984 13.1246 8.74039 13.6243 8.1244 13.6243Z" fill="url(#paint3_linear)"/>
<path d="M22.8582 2.24849H15.3331C14.7171 2.24849 14.201 1.74883 14.201 1.11592C14.201 0.483004 14.7005 -0.0166626 15.3331 -0.0166626H22.8582C23.4742 -0.0166626 23.9903 0.483004 23.9903 1.11592C23.9903 1.74883 23.4742 2.24849 22.8582 2.24849Z" fill="url(#paint4_linear)"/>
<path d="M18.3798 7.94469C19.005 7.94469 19.5119 7.43762 19.5119 6.81211C19.5119 6.18661 19.005 5.67953 18.3798 5.67953C17.7545 5.67953 17.2477 6.18661 17.2477 6.81211C17.2477 7.43762 17.7545 7.94469 18.3798 7.94469Z" fill="url(#paint5_linear)"/>
<path d="M10.6549 25H7.1421C6.52611 25 6.01001 24.5003 6.01001 23.8674C6.01001 23.2345 6.50946 22.7348 7.1421 22.7348H10.6549C11.2709 22.7348 11.787 23.2345 11.787 23.8674C11.787 24.5003 11.2875 25 10.6549 25Z" fill="url(#paint6_linear)"/>
<path d="M14.1844 19.3038H4.11213C3.49614 19.3038 2.98004 18.8041 2.98004 18.1712C2.98004 17.555 3.47949 17.0386 4.11213 17.0386H14.1844C14.8004 17.0386 15.3165 17.5383 15.3165 18.1712C15.3165 18.8041 14.817 19.3038 14.1844 19.3038Z" fill="url(#paint7_linear)"/>
<path d="M22.8582 25H15.3331C14.7171 25 14.201 24.5003 14.201 23.8674C14.201 23.2345 14.7005 22.7348 15.3331 22.7348H22.8582C23.4742 22.7348 23.9903 23.2345 23.9903 23.8674C23.9903 24.5003 23.4742 25 22.8582 25Z" fill="url(#paint8_linear)"/>
<path d="M18.3798 19.3205C19.005 19.3205 19.5119 18.8134 19.5119 18.1879C19.5119 17.5624 19.005 17.0553 18.3798 17.0553C17.7545 17.0553 17.2477 17.5624 17.2477 18.1879C17.2477 18.8134 17.7545 19.3205 18.3798 19.3205Z" fill="url(#paint9_linear)"/>
<path d="M48.6299 15.2898H37.0759C37.2091 16.5723 37.6919 17.6049 38.5076 18.3711C39.3234 19.1372 40.289 19.5203 41.3878 19.5203C43.319 19.5203 44.6842 18.7375 45.5166 17.1719C45.5499 17.1052 45.6331 17.0719 45.6997 17.0886L48.0472 17.5883C48.147 17.6049 48.2136 17.7215 48.1637 17.8214C47.581 19.2038 46.7319 20.2531 45.5832 20.9693C44.4844 21.6689 43.2025 22.0353 41.7374 22.1019C40.006 22.1685 38.2579 21.6689 36.8928 20.5863C35.0281 19.1206 34.0958 17.1219 34.0958 14.6069C34.0958 12.3917 34.8117 10.5763 36.2435 9.16054C37.6752 7.74482 39.4233 7.04529 41.4877 7.04529C43.4189 7.04529 45.0671 7.72817 46.4489 9.07727C47.8141 10.4264 48.5466 12.1585 48.6132 14.2571V15.2898H48.6299ZM38.7407 10.6096C37.8917 11.2258 37.3756 12.0753 37.1591 13.1745H45.5499C45.3168 12.042 44.834 11.1759 44.1181 10.5929C43.4023 10.01 42.5199 9.71018 41.5043 9.71018C40.5054 9.69352 39.5898 9.99332 38.7407 10.6096Z" fill="#052649"/>
<path d="M72.2206 8.59425C73.2694 9.6269 73.7855 10.976 73.7855 12.6249V21.5356C73.7855 21.6356 73.7023 21.7022 73.619 21.7022H71.0052C70.9054 21.7022 70.8388 21.6189 70.8388 21.5356V13.2245C70.8388 12.1919 70.5391 11.3591 69.9397 10.7428C69.3404 10.1266 68.5579 9.81011 67.6256 9.81011C66.4436 9.81011 65.4946 10.2265 64.812 11.0426C64.1295 11.8587 63.7798 13.0579 63.7798 14.6402V21.5356C63.7798 21.6356 63.6966 21.7022 63.6134 21.7022H60.9663C60.8664 21.7022 60.7998 21.6189 60.7998 21.5356V13.2245C60.7998 12.1919 60.5001 11.3591 59.9008 10.7428C59.3014 10.1266 58.519 9.81011 57.5867 9.81011C56.4213 9.81011 55.489 10.2265 54.8064 11.0426C54.1238 11.8587 53.7908 13.0579 53.7908 14.6402V21.5356C53.7908 21.6356 53.7076 21.7022 53.6243 21.7022H50.9439C50.8441 21.7022 50.7775 21.6189 50.7775 21.5356V7.62823C50.7775 7.5283 50.8607 7.46168 50.9439 7.46168H53.591C53.6909 7.46168 53.7575 7.54495 53.7575 7.62823V9.06061C54.8563 7.71151 56.3713 7.04529 58.3192 7.04529C59.3514 7.04529 60.2837 7.27847 61.1161 7.72817C61.9485 8.19452 62.5978 8.82743 63.0473 9.66021C64.2959 7.91138 66.0607 7.04529 68.3582 7.04529C69.9065 7.04529 71.1717 7.56161 72.2206 8.59425Z" fill="#052649"/>
<path d="M89.9844 9.17721C91.3829 10.5929 92.0821 12.3917 92.0821 14.5736C92.0821 16.7721 91.3829 18.5876 90.001 19.9867C88.6192 21.4024 86.9544 22.1019 85.0232 22.1019C82.8755 22.1019 81.1608 21.419 79.8455 20.0699V21.5356C79.8455 21.6356 79.7623 21.7022 79.6791 21.7022H77.032C76.9321 21.7022 76.8655 21.6189 76.8655 21.5356V1.66555C76.8655 1.56562 76.9487 1.49899 77.032 1.49899H79.6791C79.7789 1.49899 79.8455 1.58227 79.8455 1.66555V9.09393C81.1441 7.72817 82.8755 7.06195 85.0232 7.06195C86.9377 7.0453 88.5859 7.76148 89.9844 9.17721ZM87.8701 18.1212C88.7524 17.2385 89.1853 16.056 89.1853 14.5736C89.1853 13.0913 88.7524 11.9087 87.8701 11.026C86.9877 10.1432 85.8722 9.69353 84.5404 9.69353C83.2917 9.69353 82.2096 10.1432 81.2607 11.0593C80.3117 11.9753 79.8455 13.1412 79.8455 14.5736C79.8455 16.006 80.3117 17.1885 81.2607 18.0879C82.2096 18.9873 83.2917 19.4537 84.5404 19.4537C85.8722 19.4703 86.9877 19.0206 87.8701 18.1212Z" fill="#052649"/>
<path d="M118.653 21.7022H116.006C115.906 21.7022 115.839 21.6189 115.839 21.5356V20.0699C114.541 21.4357 112.809 22.1019 110.662 22.1019C108.73 22.1019 107.066 21.4024 105.684 19.9867C104.302 18.5709 103.603 16.7721 103.603 14.5736C103.603 12.3917 104.302 10.5929 105.7 9.1772C107.099 7.76148 108.747 7.04529 110.662 7.04529C112.809 7.04529 114.524 7.72817 115.839 9.07727V7.61158C115.839 7.51164 115.923 7.44502 116.006 7.44502H118.653C118.753 7.44502 118.819 7.5283 118.819 7.61158V21.519C118.819 21.6356 118.753 21.7022 118.653 21.7022ZM114.424 18.1046C115.357 17.1885 115.839 16.0226 115.839 14.5903C115.839 13.1579 115.373 11.9753 114.424 11.0759C113.492 10.1599 112.393 9.71018 111.144 9.71018C109.796 9.71018 108.697 10.1599 107.815 11.0426C106.932 11.9254 106.5 13.1246 106.5 14.5903C106.5 16.0559 106.932 17.2552 107.815 18.1379C108.697 19.0206 109.813 19.4703 111.144 19.4703C112.41 19.4703 113.492 19.004 114.424 18.1046Z" fill="#052649"/>
<path d="M132.854 16.4057L135.285 17.0386C135.384 17.0553 135.434 17.1552 135.418 17.2552C135.018 18.6875 134.186 19.8534 132.954 20.7362C131.655 21.6522 130.19 22.1186 128.509 22.1186C126.428 22.1186 124.646 21.419 123.181 20.0033C121.716 18.5876 120.984 16.7888 120.984 14.5903C120.984 12.4084 121.716 10.6096 123.181 9.19386C124.646 7.77814 126.428 7.06195 128.509 7.06195C130.14 7.06195 131.589 7.51165 132.871 8.42771C134.103 9.31045 134.952 10.4597 135.401 11.8921C135.434 11.992 135.368 12.0919 135.285 12.1086L132.737 12.8414C132.654 12.8747 132.554 12.8081 132.538 12.7248C132.255 11.7921 131.772 11.0759 131.089 10.5929C130.357 10.0766 129.508 9.81012 128.509 9.81012C127.193 9.81012 126.095 10.2598 125.212 11.1426C124.347 12.0253 123.897 13.1745 123.897 14.5736C123.897 16.006 124.33 17.1719 125.196 18.038C126.061 18.9041 127.16 19.3371 128.492 19.3371C130.556 19.3371 131.938 18.3877 132.638 16.489C132.671 16.4224 132.771 16.3724 132.854 16.4057Z" fill="#052649"/>
<path d="M150.917 15.2898H139.363C139.497 16.5723 139.979 17.6049 140.795 18.3711C141.611 19.1372 142.577 19.5203 143.675 19.5203C145.607 19.5203 146.972 18.7375 147.804 17.1719C147.837 17.1052 147.921 17.0719 147.987 17.0886L150.335 17.5883C150.435 17.6049 150.501 17.7215 150.451 17.8214C149.869 19.2038 149.02 20.2531 147.871 20.9693C146.772 21.6689 145.49 22.0353 144.042 22.1019C142.31 22.1685 140.562 21.6689 139.197 20.5863C137.332 19.1206 136.4 17.1219 136.4 14.6069C136.4 12.3917 137.116 10.5763 138.548 9.16054C139.979 7.74482 141.728 7.04529 143.792 7.04529C145.723 7.04529 147.371 7.72817 148.753 9.07727C150.118 10.4264 150.851 12.1585 150.917 14.2571V15.2898ZM141.028 10.6096C140.179 11.2258 139.663 12.0753 139.447 13.1745H147.837C147.604 12.042 147.122 11.1759 146.406 10.5929C145.69 10.01 144.807 9.71018 143.792 9.71018C142.793 9.69352 141.877 9.99332 141.028 10.6096Z" fill="#052649"/>
<path d="M102.288 7.29514C100.14 7.41172 98.4584 8.46102 97.2265 10.493V7.62825C97.2265 7.52831 97.1432 7.46169 97.06 7.46169H94.4129C94.313 7.46169 94.2464 7.54497 94.2464 7.62825V21.5356C94.2464 21.6356 94.3296 21.7022 94.4129 21.7022H97.06C97.1599 21.7022 97.2265 21.6189 97.2265 21.5356V16.6722C97.2265 14.6569 97.6926 13.0913 98.6083 11.942C99.474 10.8761 100.706 10.3098 102.304 10.2432C102.387 10.2432 102.471 10.1599 102.471 10.0766V7.47835C102.471 7.37841 102.387 7.29514 102.288 7.29514Z" fill="#052649"/>
</g>
<defs>
<linearGradient id="paint0_linear" x1="33.1336" y1="1.12659" x2="3.22244" y2="1.12659" gradientUnits="userSpaceOnUse">
<stop stop-color="#FA126C"/>
<stop offset="1" stop-color="#FF9F4B"/>
</linearGradient>
<linearGradient id="paint1_linear" x1="33.1336" y1="6.81193" x2="3.22241" y2="6.81193" gradientUnits="userSpaceOnUse">
<stop stop-color="#FA126C"/>
<stop offset="1" stop-color="#FF9F4B"/>
</linearGradient>
<linearGradient id="paint2_linear" x1="33.1336" y1="12.4973" x2="3.22242" y2="12.4973" gradientUnits="userSpaceOnUse">
<stop stop-color="#FA126C"/>
<stop offset="1" stop-color="#FF9F4B"/>
</linearGradient>
<linearGradient id="paint3_linear" x1="33.1336" y1="12.4973" x2="3.22243" y2="12.4973" gradientUnits="userSpaceOnUse">
<stop stop-color="#FA126C"/>
<stop offset="1" stop-color="#FF9F4B"/>
</linearGradient>
<linearGradient id="paint4_linear" x1="33.1336" y1="1.12659" x2="3.22242" y2="1.12659" gradientUnits="userSpaceOnUse">
<stop stop-color="#FA126C"/>
<stop offset="1" stop-color="#FF9F4B"/>
</linearGradient>
<linearGradient id="paint5_linear" x1="33.1336" y1="6.81183" x2="3.2224" y2="6.81183" gradientUnits="userSpaceOnUse">
<stop stop-color="#FA126C"/>
<stop offset="1" stop-color="#FF9F4B"/>
</linearGradient>
<linearGradient id="paint6_linear" x1="33.1336" y1="23.8673" x2="3.22237" y2="23.8673" gradientUnits="userSpaceOnUse">
<stop stop-color="#FA126C"/>
<stop offset="1" stop-color="#FF9F4B"/>
</linearGradient>
<linearGradient id="paint7_linear" x1="33.1336" y1="18.1819" x2="3.22241" y2="18.1819" gradientUnits="userSpaceOnUse">
<stop stop-color="#FA126C"/>
<stop offset="1" stop-color="#FF9F4B"/>
</linearGradient>
<linearGradient id="paint8_linear" x1="33.1336" y1="23.8673" x2="3.22242" y2="23.8673" gradientUnits="userSpaceOnUse">
<stop stop-color="#FA126C"/>
<stop offset="1" stop-color="#FF9F4B"/>
</linearGradient>
<linearGradient id="paint9_linear" x1="33.1336" y1="18.1821" x2="3.2224" y2="18.1821" gradientUnits="userSpaceOnUse">
<stop stop-color="#FA126C"/>
<stop offset="1" stop-color="#FF9F4B"/>
</linearGradient>
<clipPath id="clip0">
<rect width="150.917" height="25" fill="white"/>
</clipPath>
</defs>
</svg>
