<svg xmlns="http://www.w3.org/2000/svg" xml:space="preserve" id="Layer_1" x="0" y="0" style="enable-background:new 0 0 850 854" version="1.1" viewBox="0 0 850 854"><style>.st0{fill:#004a8b}</style><path d="M280.1 421h-54.3c0-107.6 87.5-195.2 195.1-195.2v54.3c-77.6 0-140.8 63.2-140.8 140.9M391.5 421h-54.3c0-46.2 37.6-83.8 83.8-83.8v54.3c-16.3 0-29.5 13.2-29.5 29.5" class="st0"/><path d="M167.3 421H113c.1-169.8 138.2-308 308-308v54.3c-139.9 0-253.7 113.8-253.7 253.7" class="st0"/><path d="M54.3 421H0C0 188.8 188.8 0 421 0v54.3C218.8 54.3 54.3 218.8 54.3 421M476.3 849.9c17.6-2.3 35-5.5 51.8-9.8V10.9c-16.9-4.3-34.2-7.6-51.8-9.8v848.8zM583.5 821.4c17.9-7.4 35.2-16 51.8-25.7v-738C618.7 48 601.4 39.4 583.5 32v789.4zM690.6 96.6v660.2c18.7-15.3 36-32.3 51.8-50.6v-559c-15.8-18.3-33.1-35.3-51.8-50.6M798 629.7c32.7-60.4 51.3-129.5 51.3-203S830.7 284 798 223.7v406zM421 809.3l-39.8 42.4c13.1 1.3 26.4 2.1 39.8 2.2v-44.6zM421 486.9 161.3 763.1c13.7 10.7 28 20.6 42.9 29.6L421 562v-75.1zM421 648.1 258.9 820.5c17.3 7.3 35.1 13.4 53.4 18.4L421 723.3v-75.2zM278.1 477.6 83.7 684.3c10.5 13.8 21.7 26.9 33.7 39.3l231.4-246.1h-70.7zM0 477.6c.5 4.1 1 8.1 1.6 12.2C3.1 499.5 5 509 7 518.6l38.5-41H0zM126.5 477.6 26.9 583.5c6.8 17.3 14.7 33.9 23.7 50l146.6-155.9h-70.7z" class="st0"/></svg>
