<svg xmlns="http://www.w3.org/2000/svg" xml:space="preserve" id="Layer_1" x="0" y="0" style="enable-background:new 0 0 259 67" version="1.1" viewBox="0 0 259 67"><style>.st0{fill:#004a8b}</style><path d="m125.4 29.8-9.1 25.3 7.2-.1 8.9-25.2zM85.5 11.8l7.2-.1.1 36.8 18.6-.1v6.7H85.6zM132.1 11.4h6.9l16.1 43.5-7.5.1zM152.2 11.6l7.6-.1 8.6 31.5 8.8-31.6 6.2-.1 8.9 31.6 8.4-31.5h7.5L195.7 55l-6.5.1-9-30.6-8.8 30.6h-6.5zM214.4 11.4h13.3c12.4 0 20.6 8.6 20.6 21.3v.5c0 12.7-8.1 21.5-20.5 21.6h-13.3l-.1-43.4zm7.2 6.4.1 30.4h6c7.9 0 13.2-5.7 13.2-15v-.4c0-9.4-5.3-15-13.2-15h-6.1zM21.9 32.9h-4.2c0-8.4 6.8-15.2 15.2-15.2v4.2c-6.1 0-11 4.9-11 11M30.6 32.9h-4.2c0-3.6 2.9-6.5 6.5-6.5v4.2c-1.3 0-2.3 1-2.3 2.3" class="st0"/><path d="M13.1 32.9H8.8c0-13.3 10.8-24 24-24v4.2c-10.9 0-19.7 8.8-19.7 19.8" class="st0"/><path d="M4.2 32.9H0C0 14.7 14.7 0 32.9 0v4.2C17.1 4.2 4.2 17.1 4.2 32.9M37.2 66.3c1.4-.2 2.7-.4 4-.8V.8c-1.3-.3-2.7-.6-4-.8v66.3zM45.5 64.1c1.4-.6 2.8-1.3 4-2V4.5c-1.3-.8-2.6-1.4-4-2v61.6zM53.9 7.5V59c1.5-1.2 2.8-2.5 4-3.9V11.5c-1.2-1.4-2.5-2.8-4-4M62.3 49.2c2.6-4.7 4-10.1 4-15.8s-1.5-11.1-4-15.8v31.6zM32.9 63.2l-3.1 3.3c1 .1 2.1.2 3.1.2v-3.5zM32.9 38 12.6 59.6c1.1.8 2.2 1.6 3.3 2.3l16.9-18V38zM32.9 50.6 20.2 64c1.3.6 2.7 1 4.2 1.4l8.5-9v-5.8zM21.7 37.3 6.5 53.4c.8 1.1 1.7 2.1 2.6 3.1l18.1-19.2h-5.5zM0 37.3c0 .3.1.6.1 1 .1.8.3 1.5.4 2.2l3-3.2H0zM9.9 37.3l-7.8 8.3c.5 1.3 1.2 2.6 1.8 3.9l11.4-12.2H9.9z" class="st0"/></svg>
